<?xml version="1.0" encoding="UTF-8"?>
<svg xmlns="http://www.w3.org/2000/svg" xmlns:xlink="http://www.w3.org/1999/xlink" width="2363px" height="701px" viewBox="0 0 2360 701" version="1.1">
<g id="surface1">
<path style=" stroke:none;fill-rule:nonzero;fill:rgb(100%,94.901961%,86.666667%);fill-opacity:1;" d="M 0 0.210938 L 2360 0.210938 L 2360 700.789062 L 0 700.789062 Z M 0 0.210938 "/>
<path style=" stroke:none;fill-rule:nonzero;fill:rgb(3.137255%,44.313725%,72.156863%);fill-opacity:1;" d="M 1372.289062 224.367188 C 1372.289062 332.769531 1284.414062 420.644531 1176.015625 420.644531 C 1067.617188 420.644531 979.742188 332.769531 979.742188 224.367188 C 979.742188 115.964844 1067.617188 28.089844 1176.015625 28.089844 C 1284.414062 28.089844 1372.289062 115.964844 1372.289062 224.367188 Z M 1372.289062 224.367188 "/>
<path style=" stroke:none;fill-rule:nonzero;fill:rgb(100%,100%,100%);fill-opacity:1;" d="M 1191.253906 325.046875 C 1159.988281 366.175781 1142.183594 356.28125 1151.40625 319.207031 C 1162.382812 275.128906 1129.3125 130.433594 1167.609375 131.21875 C 1185.941406 142.894531 1199.71875 145.816406 1207.453125 137.058594 C 1176.6875 195.46875 1177.796875 259.191406 1191.253906 325.046875 Z M 1191.253906 325.046875 "/>
<path style=" stroke:none;fill-rule:nonzero;fill:rgb(100%,100%,100%);fill-opacity:1;" d="M 1269.394531 139.742188 C 1251.472656 147.363281 1074.695312 155.128906 1074.492188 152.121094 C 1074.289062 149.113281 1064.773438 130.226562 1072.359375 118.523438 C 1080.769531 105.5625 1217.523438 138.605469 1267.265625 106.175781 C 1317.675781 73.1875 1287.316406 132.152344 1269.394531 139.742188 Z M 1269.394531 139.742188 "/>
<path style=" stroke:none;fill-rule:nonzero;fill:rgb(100%,100%,100%);fill-opacity:1;" d="M 1114.539062 288.90625 C 1068.625 315.472656 995.648438 155.769531 1050.992188 123.484375 C 1084.09375 94 1173.097656 152.003906 1063.953125 154.6875 C 1011.558594 175.675781 1090.371094 304.847656 1114.539062 288.90625 Z M 1114.539062 288.90625 "/>
<path style=" stroke:none;fill-rule:nonzero;fill:rgb(3.137255%,44.313725%,72.156863%);fill-opacity:1;" d="M 623.242188 607.203125 L 623.242188 502.117188 L 587.367188 502.117188 L 587.367188 483.316406 L 680.570312 483.316406 L 680.570312 502.117188 L 644.492188 502.117188 L 644.492188 607.203125 Z M 623.242188 607.203125 "/>
<path style=" stroke:none;fill-rule:nonzero;fill:rgb(3.137255%,44.313725%,72.156863%);fill-opacity:1;" d="M 768.054688 607.203125 L 730.425781 551.097656 L 722.429688 560.351562 L 722.429688 607.203125 L 701.179688 607.203125 L 701.179688 483.316406 L 722.429688 483.316406 L 722.429688 534.808594 C 723.859375 532.882812 725.347656 530.898438 727.011719 528.765625 L 764.023438 483.316406 L 790.441406 483.316406 L 745.253906 536.53125 L 793.15625 607.203125 Z M 768.054688 607.203125 "/>
<path style=" stroke:none;fill-rule:nonzero;fill:rgb(3.137255%,44.313725%,72.156863%);fill-opacity:1;" d="M 934.960938 607.203125 L 922.351562 570.070312 L 884.695312 570.070312 L 872.613281 607.203125 L 850.484375 607.203125 L 892.753906 483.316406 L 915.085938 483.316406 L 957.351562 607.203125 Z M 917.214844 552.324219 L 906.96875 522.199219 C 905.566406 518.140625 904.429688 514.289062 903.40625 510.523438 C 902.386719 514.347656 901.246094 518.171875 900.082031 521.9375 L 889.804688 552.292969 Z M 917.214844 552.324219 "/>
<path style=" stroke:none;fill-rule:nonzero;fill:rgb(3.137255%,44.313725%,72.156863%);fill-opacity:1;" d="M 981.054688 607.203125 L 981.054688 483.316406 L 1002.304688 483.316406 L 1002.304688 588.402344 L 1052.746094 588.402344 L 1052.746094 607.203125 Z M 981.054688 607.203125 "/>
<path style=" stroke:none;fill-rule:nonzero;fill:rgb(3.137255%,44.313725%,72.156863%);fill-opacity:1;" d="M 1121.515625 545.84375 L 1170.617188 545.84375 L 1170.617188 565.691406 L 1121.515625 565.691406 Z M 1121.515625 545.84375 "/>
<path style=" stroke:none;fill-rule:nonzero;fill:rgb(3.137255%,44.313725%,72.156863%);fill-opacity:1;" d="M 1248.671875 607.203125 L 1248.671875 483.316406 L 1318.085938 483.316406 L 1318.085938 501.765625 L 1269.921875 501.765625 L 1269.921875 535.335938 L 1314.582031 535.335938 L 1314.582031 553.785156 L 1269.921875 553.785156 L 1269.921875 607.203125 Z M 1248.671875 607.203125 "/>
<path style=" stroke:none;fill-rule:nonzero;fill:rgb(3.137255%,44.313725%,72.156863%);fill-opacity:1;" d="M 1408.164062 607.203125 L 1395.554688 570.070312 L 1357.929688 570.070312 L 1345.84375 607.203125 L 1323.746094 607.203125 L 1366.015625 483.316406 L 1388.433594 483.316406 L 1430.699219 607.203125 Z M 1390.417969 552.324219 L 1380.171875 522.199219 C 1378.800781 518.140625 1377.660156 514.289062 1376.640625 510.523438 C 1375.589844 514.347656 1374.480469 518.171875 1373.28125 521.9375 L 1363.039062 552.292969 Z M 1390.417969 552.324219 "/>
<path style=" stroke:none;fill-rule:nonzero;fill:rgb(3.137255%,44.313725%,72.156863%);fill-opacity:1;" d="M 1454.285156 607.203125 L 1454.285156 483.316406 L 1475.535156 483.316406 L 1475.535156 588.402344 L 1525.976562 588.402344 L 1525.976562 607.203125 Z M 1454.285156 607.203125 "/>
<path style=" stroke:none;fill-rule:nonzero;fill:rgb(3.137255%,44.313725%,72.156863%);fill-opacity:1;" d="M 1624.992188 607.203125 L 1612.378906 570.070312 L 1574.78125 570.070312 L 1562.699219 607.203125 L 1540.542969 607.203125 L 1582.839844 483.316406 L 1605.226562 483.316406 L 1647.496094 607.203125 Z M 1607.242188 552.324219 L 1596.996094 522.199219 C 1595.625 518.140625 1594.488281 514.289062 1593.464844 510.523438 C 1592.414062 514.347656 1591.304688 518.171875 1590.109375 521.9375 L 1579.863281 552.292969 Z M 1607.242188 552.324219 "/>
<path style=" stroke:none;fill-rule:nonzero;fill:rgb(3.137255%,44.313725%,72.156863%);fill-opacity:1;" d="M 1743.621094 607.203125 L 1743.621094 551.855469 L 1692.359375 551.855469 L 1692.359375 607.203125 L 1671.109375 607.203125 L 1671.109375 483.316406 L 1692.359375 483.316406 L 1692.359375 532.882812 L 1743.621094 532.882812 L 1743.621094 483.316406 L 1764.695312 483.316406 L 1764.695312 607.203125 Z M 1743.621094 607.203125 "/>
</g>
</svg>
